<?xml version="1.0" encoding="UTF-8"?>
<svg id="A11yIcon" xmlns="http://www.w3.org/2000/svg" version="1.1" viewBox="0 0 132 132">
  <!-- Generator: Adobe Illustrator 30.1.0, SVG Export Plug-In . SVG Version: 2.1.1 Build 136)  -->
  <circle class="st0" cx="66" cy="33.5" r="9.5" />
  <path class="st0"
    d="M97.7,36.7c-.6.3-1.2.7-1.8,1-.3.2-.6.3-.9.5s-.6.3-1,.5c-.4.2-.7.3-1.1.5-.3.1-.6.3-.8.4-.4.2-.8.3-1.2.5l-.8.3c-.4.2-.8.3-1.2.5-.2,0-.5.2-.7.3-.4.2-.8.3-1.2.5-.2,0-.5.2-.7.3-.4.2-.8.3-1.2.4-.2,0-.5.2-.7.2-.4.1-.8.3-1.2.4-.2,0-.5.1-.7.2-.4.1-.8.2-1.2.3-.2,0-.4.1-.7.2-.4.1-.8.2-1.2.3-.2,0-.5,0-.7.2-.4,0-.8.2-1.2.3-.2,0-.4,0-.7.1-.4,0-.8.2-1.2.2-.2,0-.4,0-.7.1-.4,0-.8.1-1.2.2s-.4,0-.6,0c-.4,0-.8.1-1.3.2-.2,0-.4,0-.6,0-.4,0-.9,0-1.3.1-.1,0-.3,0-.4,0-2.2.1-4.5.1-6.7,0-.1,0-.3,0-.4,0-.4,0-.9,0-1.3-.1-.2,0-.4,0-.6,0-.4,0-.8,0-1.3-.2-.2,0-.4,0-.6,0-.4,0-.8-.1-1.2-.2-.2,0-.5,0-.7-.1-.4,0-.8-.2-1.2-.2-.2,0-.5,0-.7-.1-.4,0-.8-.2-1.2-.3-.2,0-.5,0-.7-.2-.4,0-.8-.2-1.2-.3-.2,0-.5-.1-.7-.2-.4-.1-.8-.2-1.2-.3-.2,0-.5-.1-.7-.2-.4-.1-.8-.3-1.2-.4-.2,0-.5-.2-.7-.2-.4-.1-.8-.3-1.2-.4-.2,0-.5-.2-.7-.3-.4-.2-.8-.3-1.2-.5-.2,0-.5-.2-.7-.3-.4-.2-.8-.3-1.2-.5l-.8-.3c-.4-.2-.8-.3-1.2-.5-.3-.1-.5-.3-.8-.4-.4-.2-.7-.3-1.1-.5-.3-.2-.6-.3-1-.5s-.6-.3-1-.5c-.6-.3-1.2-.6-1.8-1-1.9-1.1-4.4-.4-5.4,1.5-1.1,1.9-.4,4.4,1.5,5.4.6.3,1.2.6,1.7.9h0c0,0,.2,0,.3.1.3.2.6.3.9.5.4.2.8.4,1.3.6.3.2.6.3.9.4.4.2.8.4,1.3.6.3.1.6.3.9.4.4.2.8.4,1.3.5.3.1.6.2.9.4.4.2.8.3,1.2.5.3.1.6.2.9.4.4.2.8.3,1.2.5l1,.3c.4.1.8.3,1.2.4.3.1.7.2,1,.3.4.1.8.2,1.2.3.3,0,.7.2,1,.3.4,0,.8.2,1.2.3.3,0,.7.2,1,.3.4,0,.8.2,1.1.2.3,0,.7.2,1.1.2.4,0,.7.1,1.1.2.2,0,.3,0,.5,0l1.4,15.1v4.6l-11.7,33c-1,2.7.5,5.6,3.1,6.6.6.2,1.2.3,1.7.3,2.1,0,4.1-1.3,4.8-3.4l10.5-29.7h2.9l10.5,29.7c.8,2.1,2.7,3.4,4.8,3.4s1.2,0,1.7-.3c2.7-.9,4.1-3.9,3.1-6.6l-11.7-33v-4.6l1.4-15.1c.2,0,.3,0,.5,0,.4,0,.7-.1,1.1-.2.4,0,.7-.2,1.1-.2.4,0,.7-.2,1.1-.2.3,0,.7-.2,1.1-.3.4,0,.8-.2,1.1-.3.3,0,.7-.2,1-.3.4-.1.8-.2,1.2-.3.3,0,.7-.2,1-.3.4-.1.8-.3,1.2-.4.3-.1.7-.2,1-.3.4-.1.8-.3,1.2-.4.3-.1.6-.2.9-.4.4-.2.8-.3,1.2-.5.3-.1.6-.2.9-.4.4-.2.8-.4,1.3-.5.3-.1.6-.3.9-.4.4-.2.8-.4,1.3-.6.3-.1.6-.3.9-.4.4-.2.8-.4,1.3-.7.3-.2.6-.3.9-.5,0,0,.2,0,.3-.1h0c.6-.3,1.2-.6,1.7-.9,1.9-1.1,2.6-3.5,1.5-5.4s-3.5-2.6-5.4-1.5h0Z" />
  <path class="st0"
    d="M66,2C30.6,2,2,30.6,2,66s28.6,64,64,64,64-28.7,64-64S101.3,2,66,2ZM66,126c-33.1,0-60-26.9-60-60S32.9,6,66,6s60,26.9,60,60-26.9,60-60,60Z" />
</svg>