<?xml version="1.0" encoding="UTF-8"?>
<svg id="Layer_2" data-name="Layer 2" xmlns="http://www.w3.org/2000/svg" viewBox="0 0 770.36 240.62">
  <g id="Layer_1-2" data-name="Layer 1">
    <g>
      <path class="cls-1"
        d="M0,54.55C0,22.11,23.15,0,54.55,0c28.9,0,43.34,17.69,46.74,32.43h-22.11c-3.24-7.08-9.88-14.45-24.92-14.45-18.28,0-31.7,12.97-31.7,36.56,0,22.11,12.53,35.38,32.43,35.38,13.27,0,25.8-7.52,27.27-25.8h-33.61v-16.95h52.34v58.23h-19.9v-10.91c-5.9,8.7-17.84,13.12-30.52,13.12C21.23,107.62,0,85.95,0,54.55Z" />
      <path class="cls-1" d="M118.53,2.21h21.38v84.04h42.31v19.17h-63.69V2.21Z" />
      <path class="cls-1"
        d="M228.95,2.21h23.59l37,103.2h-22.85l-6.49-19.9h-39.95l-6.63,19.9h-22.26L228.95,2.21ZM254.45,67.82l-6.19-19.31c-1.47-4.42-5.31-16.07-7.81-24.47h-.15c-2.51,8.4-6.19,19.61-7.81,24.33l-6.49,19.46h28.45Z" />
      <path class="cls-1"
        d="M301.8,2.21h35.24c31.7,0,54.99,20.64,54.99,51.6s-23.29,51.6-54.99,51.6h-35.24V2.21ZM335.56,87.43c22.11,0,34.79-11.79,34.79-33.61s-12.68-33.61-34.79-33.61h-12.38v67.23h12.38Z" />
      <path class="cls-1"
        d="M396,2.21h22.7l15.63,81.68,15.63-81.68h26.24l14.74,79.32,15.04-79.32h21.97l-22.11,103.2h-28.45l-15.19-73.72-15.33,73.72h-28.75L396,2.21Z" />
      <path class="cls-1"
        d="M540.77,2.21h74.3v17.99h-52.93v23.59h44.82v17.4h-44.82v26.24h53.67v17.99h-75.04V2.21Z" />
      <path class="cls-1" d="M629.67,2.21h21.38v84.04h42.31v19.17h-63.69V2.21Z" />
      <path class="cls-1" d="M706.67,2.21h21.38v84.04h42.31v19.17h-63.69V2.21Z" />
      <path class="cls-1"
        d="M19.5,135.21h36.12c22.11,0,39.81,12.09,39.81,32.58s-17.69,33.32-39.81,33.32h-14.74v37.3h-21.38v-103.2ZM73.31,167.79c0-11.65-9.58-15.63-19.17-15.63h-13.27v31.26h13.27c9.58,0,19.17-4.42,19.17-15.63Z" />
      <path class="cls-1"
        d="M106.03,135.21h42.02c25.06,0,38.04,11.21,38.04,28.16,0,14.15-8.11,21.97-19.61,24.77,12.24.74,17.4,8.7,17.4,21.67v7.81c0,10.47,1.18,16.81,5.6,20.49v.29h-22.41c-2.95-3.24-4.42-9.44-4.42-19.31v-9.44c0-9.58-2.51-13.12-11.94-13.12h-23.29v41.87h-21.38v-103.2ZM164.42,166.32c0-9.88-6.49-14.15-17.1-14.15h-19.9v28.9h18.87c10.91,0,18.13-4.57,18.13-14.74Z" />
      <path class="cls-1"
        d="M195.07,186.81c0-33.17,25.06-53.81,53.81-53.81s53.81,20.64,53.81,53.81-25.06,53.81-53.81,53.81-53.81-20.64-53.81-53.81ZM279.99,186.81c0-21.97-12.83-35.83-31.11-35.83s-31.11,13.86-31.11,35.83,12.83,35.83,31.11,35.83,31.11-13.86,31.11-35.83Z" />
      <path class="cls-1"
        d="M311.1,206.72v-5.16h20.94v3.69c0,11.79,3.54,17.69,12.83,17.69s12.97-5.9,12.97-19.17v-68.55h21.38v70.77c0,18.43-10.03,34.65-34.35,34.65s-33.76-14.01-33.76-33.91Z" />
      <path class="cls-1"
        d="M395.57,135.21h74.3v17.99h-52.93v23.59h44.82v17.4h-44.82v26.24h53.67v17.99h-75.04v-103.2Z" />
      <path class="cls-1"
        d="M478.27,186.81c0-33.91,23.74-53.81,52.04-53.81s42.46,16.22,46,33.91h-22.11c-2.06-7.81-10.32-15.63-23.44-15.63-17.69,0-29.63,12.83-29.63,35.53s11.94,35.53,29.63,35.53c13.12,0,21.38-7.81,23.44-15.63h22.11c-3.54,17.69-18.43,33.91-46,33.91-30.37,0-52.04-19.9-52.04-53.81Z" />
      <path class="cls-1" d="M609.33,153.94h-27.42v-18.72h76.22v18.72h-27.42v84.48h-21.38v-84.48Z" />
      <path class="cls-1"
        d="M664.17,205.24h22.26c1.92,11.5,10.62,18.13,25.06,18.13,12.09,0,20.64-5.6,20.64-13.56,0-7.22-5.31-10.17-16.81-12.68l-15.19-3.39c-21.23-4.72-33.02-13.42-33.02-28.75,0-19.9,18.13-31.99,41.72-31.99,26.54,0,40.4,14.01,42.61,28.75h-21.08c-2.36-6.93-9.58-12.09-21.97-12.09-10.76,0-19.31,5.01-19.31,12.68,0,6.19,4.42,8.99,15.92,11.5l12.53,2.8c24.77,5.6,37,14.15,37,30.96,0,19.46-18.28,33.02-44.82,33.02s-44.08-14.74-45.56-35.38Z" />
    </g>
  </g>
</svg>