<?xml version="1.0" encoding="UTF-8"?>
<svg id="Layer_2" data-name="Layer 2" xmlns="http://www.w3.org/2000/svg" viewBox="0 0 347.16 171.08">
  <g id="Layer_1-2" data-name="Layer 1">
    <g>
      <g>
        <path class="cls-1"
          d="M0,42.8C0,17.35,18.16,0,42.8,0c22.67,0,34.01,13.88,36.67,25.45h-17.35c-2.54-5.55-7.75-11.34-19.55-11.34-14.34,0-24.87,10.18-24.87,28.68,0,17.35,9.83,27.76,25.45,27.76,10.41,0,20.24-5.9,21.4-20.24h-26.37v-13.3h41.06v45.69h-15.61v-8.56c-4.63,6.82-14,10.29-23.94,10.29C16.66,84.43,0,67.43,0,42.8Z" />
        <path class="cls-1" d="M92.99,1.73h16.77v65.93h33.2v15.04h-49.97V1.73Z" />
        <path class="cls-1"
          d="M179.62,1.73h18.51l29.03,80.97h-17.93l-5.09-15.61h-31.35l-5.2,15.61h-17.47L179.62,1.73ZM199.63,53.21l-4.86-15.15c-1.16-3.47-4.16-12.61-6.13-19.2h-.12c-1.97,6.59-4.86,15.38-6.13,19.08l-5.09,15.27h22.32Z" />
        <path class="cls-1"
          d="M236.77,1.73h27.64c24.87,0,43.14,16.19,43.14,40.48s-18.28,40.48-43.14,40.48h-27.64V1.73ZM263.26,68.59c17.35,0,27.3-9.25,27.3-26.37s-9.95-26.37-27.3-26.37h-9.72v52.74h9.72Z" />
      </g>
      <g>
        <path class="cls-1"
          d="M53.47,90.12h17.81l12.26,64.08,12.26-64.08h20.59l11.57,62.23,11.8-62.23h17.23l-17.35,80.97h-22.32l-11.91-57.83-12.03,57.83h-22.55l-17.35-80.97Z" />
        <path class="cls-1"
          d="M167.05,90.12h58.29v14.11h-41.52v18.51h35.16v13.65h-35.16v20.59h42.1v14.11h-58.87v-80.97Z" />
        <path class="cls-1" d="M236.79,90.12h16.77v65.93h33.2v15.04h-49.97v-80.97Z" />
        <path class="cls-1" d="M297.2,90.12h16.77v65.93h33.2v15.04h-49.97v-80.97Z" />
      </g>
    </g>
  </g>
</svg>