<?xml version="1.0" encoding="UTF-8"?>
<svg id="Layer_2" data-name="Layer 2" xmlns="http://www.w3.org/2000/svg" viewBox="0 0 770.36 107.62">
  <g id="Layer_1-2" data-name="Layer 1">
    <g>
      <path class="cls-1"
        d="M0,54.55C0,22.11,23.15,0,54.55,0c28.9,0,43.34,17.69,46.74,32.43h-22.11c-3.24-7.08-9.88-14.45-24.92-14.45-18.28,0-31.7,12.97-31.7,36.56,0,22.11,12.53,35.38,32.43,35.38,13.27,0,25.8-7.52,27.27-25.8h-33.61v-16.95h52.34v58.23h-19.9v-10.91c-5.9,8.7-17.84,13.12-30.52,13.12C21.23,107.62,0,85.95,0,54.55Z" />
      <path class="cls-1" d="M118.53,2.21h21.38v84.04h42.31v19.17h-63.69V2.21Z" />
      <path class="cls-1"
        d="M228.95,2.21h23.59l37,103.2h-22.85l-6.49-19.9h-39.95l-6.63,19.9h-22.26L228.95,2.21ZM254.45,67.82l-6.19-19.31c-1.47-4.42-5.31-16.07-7.81-24.47h-.15c-2.51,8.4-6.19,19.61-7.81,24.33l-6.49,19.46h28.45Z" />
      <path class="cls-1"
        d="M301.8,2.21h35.24c31.7,0,54.99,20.64,54.99,51.6s-23.29,51.6-54.99,51.6h-35.24V2.21ZM335.56,87.43c22.11,0,34.79-11.79,34.79-33.61s-12.68-33.61-34.79-33.61h-12.38v67.23h12.38Z" />
      <path class="cls-1"
        d="M396,2.21h22.7l15.63,81.68,15.63-81.68h26.24l14.74,79.32,15.04-79.32h21.97l-22.11,103.2h-28.45l-15.19-73.72-15.33,73.72h-28.75L396,2.21Z" />
      <path class="cls-1"
        d="M540.77,2.21h74.3v17.99h-52.93v23.59h44.82v17.4h-44.82v26.24h53.67v17.99h-75.04V2.21Z" />
      <path class="cls-1" d="M629.67,2.21h21.38v84.04h42.31v19.17h-63.69V2.21Z" />
      <path class="cls-1" d="M706.67,2.21h21.38v84.04h42.31v19.17h-63.69V2.21Z" />
    </g>
  </g>
</svg>