<?xml version="1.0" encoding="UTF-8"?>
<svg id="Layer_2" data-name="Layer 2" xmlns="http://www.w3.org/2000/svg" viewBox="0 0 735.05 107.62">
  <g id="Layer_1-2" data-name="Layer 1">
    <g>
      <path class="cls-1"
        d="M0,2.21h36.12c22.11,0,39.81,12.09,39.81,32.58s-17.69,33.32-39.81,33.32h-14.74v37.3H0V2.21ZM53.81,34.79c0-11.65-9.58-15.63-19.17-15.63h-13.27v31.26h13.27c9.58,0,19.17-4.42,19.17-15.63Z" />
      <path class="cls-1"
        d="M86.54,2.21h42.02c25.06,0,38.04,11.21,38.04,28.16,0,14.15-8.11,21.97-19.61,24.77,12.24.74,17.4,8.7,17.4,21.67v7.81c0,10.47,1.18,16.81,5.6,20.49v.29h-22.41c-2.95-3.24-4.42-9.44-4.42-19.31v-9.44c0-9.58-2.51-13.12-11.94-13.12h-23.29v41.87h-21.38V2.21ZM144.92,33.32c0-9.88-6.49-14.15-17.1-14.15h-19.9v28.9h18.87c10.91,0,18.13-4.57,18.13-14.74Z" />
      <path class="cls-1"
        d="M175.58,53.81c0-33.17,25.06-53.81,53.81-53.81s53.81,20.64,53.81,53.81-25.06,53.81-53.81,53.81-53.81-20.64-53.81-53.81ZM260.5,53.81c0-21.97-12.83-35.83-31.11-35.83s-31.11,13.86-31.11,35.83,12.83,35.83,31.11,35.83,31.11-13.86,31.11-35.83Z" />
      <path class="cls-1"
        d="M291.6,73.72v-5.16h20.94v3.69c0,11.79,3.54,17.69,12.83,17.69s12.97-5.9,12.97-19.17V2.21h21.38v70.77c0,18.43-10.03,34.65-34.35,34.65s-33.76-14.01-33.76-33.91Z" />
      <path class="cls-1"
        d="M376.07,2.21h74.3v17.99h-52.93v23.59h44.82v17.4h-44.82v26.24h53.67v17.99h-75.04V2.21Z" />
      <path class="cls-1"
        d="M458.78,53.81c0-33.91,23.74-53.81,52.04-53.81s42.46,16.22,46,33.91h-22.11c-2.06-7.81-10.32-15.63-23.44-15.63-17.69,0-29.63,12.83-29.63,35.53s11.94,35.53,29.63,35.53c13.12,0,21.38-7.81,23.44-15.63h22.11c-3.54,17.69-18.43,33.91-46,33.91-30.37,0-52.04-19.9-52.04-53.81Z" />
      <path class="cls-1" d="M589.84,20.94h-27.42V2.21h76.22v18.72h-27.42v84.48h-21.38V20.94Z" />
      <path class="cls-1"
        d="M644.68,72.24h22.26c1.92,11.5,10.62,18.13,25.06,18.13,12.09,0,20.64-5.6,20.64-13.56,0-7.22-5.31-10.17-16.81-12.68l-15.19-3.39c-21.23-4.72-33.02-13.42-33.02-28.75,0-19.9,18.13-31.99,41.72-31.99,26.54,0,40.4,14.01,42.61,28.75h-21.08c-2.36-6.93-9.58-12.09-21.97-12.09-10.76,0-19.31,5.01-19.31,12.68,0,6.19,4.42,8.99,15.92,11.5l12.53,2.8c24.77,5.6,37,14.15,37,30.96,0,19.46-18.28,33.02-44.82,33.02s-44.08-14.74-45.56-35.38Z" />
    </g>
  </g>
</svg>